<?xml version="1.0" encoding="UTF-8"?>
<svg version="1.1" xmlns="http://www.w3.org/2000/svg" width="612" height="612">
<path d="M0 0 C2.38925502 2.24445168 2.94951308 3.79290376 3.0859375 7.0546875 C2.50123119 15.94837822 -1.36839518 21.85552556 -7.60375977 27.97338867 C-11.71732938 31.45242498 -16.38712149 33.73287048 -21.1875 36.125 C-30.30618348 40.60804231 -30.30618348 40.60804231 -37 48 C-38.45463871 53.91553074 -38.20485038 59.27586921 -36 65 C-34.48240898 67.18153709 -32.78938625 69.0222573 -31 71 C-31 71.99 -31 72.98 -31 74 C-30.34 74 -29.68 74 -29 74 C-29 74.66 -29 75.32 -29 76 C-28.34 76 -27.68 76 -27 76 C-27 76.66 -27 77.32 -27 78 C-26.01 78.33 -25.02 78.66 -24 79 C-17.6744714 86.2315288 -14.35133606 95.19275202 -14.7890625 104.7890625 C-15.65605182 113.87639502 -18.54484142 121.34001073 -25.70336914 127.45507812 C-30.57784733 131.23981029 -35.74808811 134.23431505 -41.1875 137.125 C-51.30625997 142.13885598 -51.30625997 142.13885598 -57.3125 151.25 C-57.63863281 152.14203125 -57.96476563 153.0340625 -58.30078125 153.953125 C-58.64689453 154.96632813 -58.64689453 154.96632813 -59 156 C-59.66 156 -60.32 156 -61 156 C-61 156.66 -61 157.32 -61 158 C-62.43655854 158.08131463 -63.8744483 158.13933559 -65.3125 158.1875 C-66.11300781 158.22230469 -66.91351563 158.25710938 -67.73828125 158.29296875 C-70 158 -70 158 -71.7734375 156.72265625 C-73.87040341 153.77755445 -73.38284433 150.43932285 -73 147 C-72.46989347 144.58960108 -71.78240187 142.34720562 -71 140 C-71.99 139.071875 -71.99 139.071875 -73 138.125 C-75 136 -75 136 -75 134 C-75.72703125 133.7421875 -76.4540625 133.484375 -77.203125 133.21875 C-80.1239717 131.94597881 -82.23835317 130.45172556 -84.75 128.5 C-99.64381039 117.47497212 -117.22273856 107.0800154 -135.875 104.875 C-136.90753906 104.74544922 -136.90753906 104.74544922 -137.9609375 104.61328125 C-139.63995275 104.40340434 -141.31989048 104.20092913 -143 104 C-142.66113636 122.8223348 -133.80571533 138.25113053 -122.46875 152.79296875 C-121 155 -121 155 -121 158 C-120.01 158.33 -119.02 158.66 -118 159 C-115.67734388 161.58072903 -115 162.45176068 -115 166 C-114.01 166.33 -113.02 166.66 -112 167 C-110.17578125 168.7421875 -110.17578125 168.7421875 -108.3125 170.875 C-107.37857422 171.92300781 -107.37857422 171.92300781 -106.42578125 172.9921875 C-105 175 -105 175 -105 178 C-104.34 178 -103.68 178 -103 178 C-103 178.66 -103 179.32 -103 180 C-102.34 180 -101.68 180 -101 180 C-101 180.66 -101 181.32 -101 182 C-100.34 182 -99.68 182 -99 182 C-99 182.66 -99 183.32 -99 184 C-98.34 184 -97.68 184 -97 184 C-97 184.66 -97 185.32 -97 186 C-96.01 186.33 -95.02 186.66 -94 187 C-92.38671875 188.671875 -92.38671875 188.671875 -90.6875 190.75 C-88.4577346 193.39725339 -86.27699079 195.72656416 -83.5625 197.875 C-82.716875 198.57625 -81.87125 199.2775 -81 200 C-81 200.66 -81 201.32 -81 202 C-80.34 202 -79.68 202 -79 202 C-79 202.66 -79 203.32 -79 204 C-78.34 204 -77.68 204 -77 204 C-77 204.66 -77 205.32 -77 206 C-76.34 206 -75.68 206 -75 206 C-75 206.66 -75 207.32 -75 208 C-74.34 208 -73.68 208 -73 208 C-73 208.66 -73 209.32 -73 210 C-72.42765625 210.09410156 -71.8553125 210.18820312 -71.265625 210.28515625 C-68.47667681 211.16511749 -66.92723114 212.49815152 -64.75 214.4375 C-64.04359375 215.05496094 -63.3371875 215.67242187 -62.609375 216.30859375 C-61 218 -61 218 -61 220 C-60.443125 220.0825 -59.88625 220.165 -59.3125 220.25 C-56.28023432 221.23343752 -54.48280531 222.99210541 -52 225 C-44.3205478 230.47586555 -36.44585453 235.4904985 -28.125 239.9375 C-27.44856445 240.30254639 -26.77212891 240.66759277 -26.07519531 241.04370117 C-19.15237324 244.65601152 -12.29372607 247.23599275 -4.4375 247.6875 C-2.88869141 247.78611328 -2.88869141 247.78611328 -1.30859375 247.88671875 C-0.54675781 247.92410156 0.21507812 247.96148437 1 248 C0.33366072 239.36056662 -0.82843436 231.61959518 -4.125 223.5625 C-6.47629204 217.78162973 -7.95606669 213.26754828 -7 207 C-5.7109375 205.30078125 -5.7109375 205.30078125 -4 204 C1.57392317 203.29220023 1.57392317 203.29220023 4 204 C13.92581005 214.3332127 17.34210105 232.57194532 17.15234375 246.4453125 C16.74675564 253.24671319 15.35795541 258.68874185 11 264 C10.34 264 9.68 264 9 264 C8.67 264.99 8.34 265.98 8 267 C5.52734375 268.515625 5.52734375 268.515625 1.9375 270.25 C1.25268555 270.58298096 0.56787109 270.91596191 -0.13769531 271.2590332 C-2.75150282 272.52108952 -5.37489371 273.761611 -8 275 C-9.13614746 275.53737793 -10.27229492 276.07475586 -11.44287109 276.62841797 C-27.92942784 284.41866716 -44.47331195 292.08689693 -61.015625 299.7578125 C-71.46333255 304.60453526 -81.89746146 309.48036416 -92.33270264 314.35385132 C-96.70032766 316.39352615 -101.06871256 318.43156628 -105.4375 320.46875 C-107.91669866 321.62493141 -110.39586369 322.78118491 -112.875 323.9375 C-113.48901672 324.22388336 -114.10303345 324.51026672 -114.73565674 324.80532837 C-121.85604357 328.12683137 -128.97351955 331.45443263 -136.0859375 334.79296875 C-136.75969421 335.10922211 -137.43345093 335.42547546 -138.12762451 335.75131226 C-138.80158264 336.06766632 -139.47554077 336.38402039 -140.16992188 336.70996094 C-154.35819957 343.36978207 -168.5686318 349.97878839 -182.80712891 356.53076172 C-187.2714096 358.58505452 -191.73493673 360.64097481 -196.19750977 362.69897461 C-198.41469818 363.72094356 -200.63261777 364.74132792 -202.85131836 365.76000977 C-207.60065558 367.9449886 -212.33566306 370.1464318 -217.0234375 372.4609375 C-228.44360509 378.08935218 -237.24109473 381.55700568 -249.9921875 378.10546875 C-254.44523265 376.46883008 -257.5648439 374.22364967 -261 371 C-261.69996094 370.38898438 -262.39992188 369.77796875 -263.12109375 369.1484375 C-270.50185559 362.35001099 -273.43214042 356.02041672 -273.9375 345.9375 C-273.98748178 334.56783548 -268.7197576 325.26399874 -263.68115234 315.35449219 C-261.02221939 310.04898264 -258.55154355 304.65760904 -256.06442261 299.27023315 C-254.58133096 296.06492811 -253.08315362 292.86669412 -251.5859375 289.66796875 C-250.98271074 288.37810959 -250.37952048 287.08823336 -249.77636719 285.79833984 C-249.48064819 285.16603455 -249.1849292 284.53372925 -248.88024902 283.88226318 C-240.70180899 266.39405681 -232.55267068 248.89265117 -224.4375 231.375 C-224.02821259 230.49158936 -223.61892517 229.60817871 -223.19723511 228.69799805 C-218.17625735 217.86100125 -218.17625735 217.86100125 -213.15966797 207.02197266 C-206.3076159 192.20971452 -199.38360144 177.43368478 -192.40298462 162.68170166 C-187.58239917 152.49372049 -182.79831259 142.29014988 -178.0625 132.0625 C-177.02091476 129.82157673 -175.97925061 127.58069014 -174.9375 125.33984375 C-173.00205468 121.1736834 -171.08816339 116.99853497 -169.1875 112.81640625 C-168.31289871 110.91908699 -167.43792117 109.02194111 -166.5625 107.125 C-165.99704468 105.85861694 -165.99704468 105.85861694 -165.42016602 104.56665039 C-162.69702924 98.71621299 -159.64696932 94.07153221 -153.875 90.79296875 C-144.33697001 87.7129799 -135.65574943 87.24280755 -125.9375 89.625 C-125.19999512 89.80538818 -124.46249023 89.98577637 -123.70263672 90.17163086 C-104.9034183 94.97928 -85.4640592 104.86397817 -71 118 C-71 118.66 -71 119.32 -71 120 C-70.4225 120.103125 -69.845 120.20625 -69.25 120.3125 C-66.64338842 121.10896465 -65.0264689 122.19065277 -63 124 C-63 124.66 -63 125.32 -63 126 C-62.34 126 -61.68 126 -61 126 C-61 126.66 -61 127.32 -61 128 C-45.076866 121.38614811 -45.076866 121.38614811 -33 110 C-31.92694812 103.32045999 -31.86147148 96.79840221 -35.625 91 C-37.6975071 88.3452171 -39.96699505 85.97567149 -42.375 83.625 C-43.24125 82.75875 -44.1075 81.8925 -45 81 C-45 80.01 -45 79.02 -45 78 C-45.99 77.67 -46.98 77.34 -48 77 C-54.41352123 69.36848068 -55.69263113 60.66672138 -55 51 C-54.14805342 42.83780209 -50.62278478 36.52215187 -44.75 30.8125 C-40.58091007 28.06469073 -36.30842691 25.52215074 -32 23 C-30.94039062 22.35933594 -29.88078125 21.71867187 -28.7890625 21.05859375 C-27.19191406 20.10146484 -27.19191406 20.10146484 -25.5625 19.125 C-24.07943359 18.23167969 -24.07943359 18.23167969 -22.56640625 17.3203125 C-20 16 -20 16 -17 16 C-17 15.34 -17 14.68 -17 14 C-16.34 14 -15.68 14 -15 14 C-14.9175 13.34 -14.835 12.68 -14.75 12 C-13.76146107 8.0458443 -12.14741483 4.46827753 -10 1 C-6.78775055 -0.60612472 -3.47525514 -0.60285038 0 0 Z M-157 125 C-161.97588516 134.78407116 -166.73059649 144.63132367 -171.21295166 154.65078735 C-176.89309592 167.33522648 -182.78617423 179.8965383 -188.86743164 192.39306641 C-194.52719714 204.03843122 -199.97571045 215.77715517 -205.39990234 227.53369141 C-208.05063535 233.27600255 -210.71242742 239.01317113 -213.375 244.75 C-214.17393677 246.47259033 -214.17393677 246.47259033 -214.98901367 248.22998047 C-217.85283687 254.3986753 -220.72935585 260.56103731 -223.625 266.71484375 C-230.79428691 281.95449028 -237.87786225 297.22752837 -244.81396484 312.57495117 C-245.25033012 313.53944435 -245.25033012 313.53944435 -245.69551086 314.52342224 C-246.26888329 315.79185699 -246.84099737 317.06086138 -247.41178894 318.33045959 C-248.88661376 321.59840014 -250.39923696 324.84160616 -251.97241211 328.06347656 C-252.29528198 328.7316893 -252.61815186 329.39990204 -252.95080566 330.08836365 C-253.84586384 331.93429913 -254.75250535 333.77460524 -255.65991211 335.61450195 C-258.05237106 341.6586317 -258.19303189 347.73154282 -255.96484375 353.8359375 C-255.64644531 354.55007813 -255.32804687 355.26421875 -255 356 C-254.34 356 -253.68 356 -253 356 C-253 356.66 -253 357.32 -253 358 C-252.34 358 -251.68 358 -251 358 C-251 358.66 -251 359.32 -251 360 C-245.66650064 363.36852591 -241.12026624 363.63513529 -235 363 C-231.88376124 362.11363455 -229.07873485 360.80568784 -226.1796875 359.37109375 C-225.37070511 358.99011032 -224.56172272 358.60912689 -223.72822571 358.21659851 C-221.10162326 356.9746304 -218.48870141 355.70636112 -215.875 354.4375 C-214.03905691 353.56372083 -212.20221205 352.69183405 -210.36450195 351.82177734 C-206.65683056 350.06337826 -202.95408444 348.29522918 -199.25537109 346.51806641 C-192.57415308 343.31062648 -185.86069269 340.17341916 -179.14480591 337.03942871 C-175.89115962 335.51936608 -172.64115368 333.99155828 -169.390625 332.46484375 C-154.54804235 325.49858898 -139.66956993 318.60938552 -124.77734375 311.75 C-121.47646865 310.22937028 -118.17567925 308.70855479 -114.875 307.1875 C-113.63354218 306.61539795 -113.63354218 306.61539795 -112.36700439 306.03173828 C-99.25609909 299.98737142 -86.17926353 293.87377816 -73.12402344 287.71020508 C-66.45260888 284.56133406 -59.77668018 281.42344491 -53.08203125 278.32421875 C-52.44660904 278.0299852 -51.81118683 277.73575165 -51.1565094 277.43260193 C-48.19854004 276.06368772 -45.23936552 274.69750179 -42.27856445 273.3347168 C-36.91920993 270.85910932 -31.58010055 268.34463468 -26.2734375 265.7578125 C-25.28520996 265.27715332 -24.29698242 264.79649414 -23.27880859 264.30126953 C-20.87196355 263.20638527 -20.87196355 263.20638527 -20 261 C-21.17175781 260.50371094 -22.34351563 260.00742187 -23.55078125 259.49609375 C-32.55176633 255.62783838 -40.91282886 251.58197226 -49 246 C-50.05316406 245.31550781 -51.10632813 244.63101563 -52.19140625 243.92578125 C-56.87844142 240.87441419 -61.08992319 238.01163725 -65 234 C-65.804375 233.525625 -66.60875 233.05125 -67.4375 232.5625 C-70.4168031 230.74585177 -72.54155069 228.45844931 -75 226 C-75.66 226 -76.32 226 -77 226 C-77 225.34 -77 224.68 -77 224 C-78.65365406 222.97862543 -80.32376502 221.98387706 -82 221 C-87.62692308 216.74615385 -87.62692308 216.74615385 -89 214 C-89.66 214 -90.32 214 -91 214 C-91 213.34 -91 212.68 -91 212 C-91.66 212 -92.32 212 -93 212 C-93 211.34 -93 210.68 -93 210 C-93.66 210 -94.32 210 -95 210 C-95 209.34 -95 208.68 -95 208 C-95.66 208 -96.32 208 -97 208 C-97 207.34 -97 206.68 -97 206 C-97.66 206 -98.32 206 -99 206 C-99 205.34 -99 204.68 -99 204 C-99.66 204 -100.32 204 -101 204 C-101 203.34 -101 202.68 -101 202 C-101.66 202 -102.32 202 -103 202 C-103 201.34 -103 200.68 -103 200 C-103.66 200 -104.32 200 -105 200 C-105 199.34 -105 198.68 -105 198 C-105.66 198 -106.32 198 -107 198 C-107 197.34 -107 196.68 -107 196 C-107.66 196 -108.32 196 -109 196 C-109 195.34 -109 194.68 -109 194 C-111.33705141 191.5331124 -113.78002024 189.20775866 -116.25 186.875 C-118 185 -118 185 -119 182 C-119.66 182 -120.32 182 -121 182 C-121 181.34 -121 180.68 -121 180 C-122.1446875 178.8553125 -122.1446875 178.8553125 -123.3125 177.6875 C-125.80429806 175.19570194 -127.20746572 172.98755714 -129 170 C-129.7425 169.29875 -130.485 168.5975 -131.25 167.875 C-135.24194557 163.70160236 -137.98852311 158.9068992 -141 154 C-141.65355469 152.99582031 -142.30710937 151.99164063 -142.98046875 150.95703125 C-148.31125203 142.65668204 -152.2591304 134.10667943 -156 125 C-156.33 125 -156.66 125 -157 125 Z " fill="#5148DF" transform="translate(381,118)"/>
<path d="M0 0 C2.58738298 1.72492198 3.73851694 3.09989485 4.609375 6.09765625 C6.10118874 15.51100094 2.6221067 22.95388834 -2.6875 30.5625 C-3.28949219 31.36816406 -3.89148438 32.17382812 -4.51171875 33.00390625 C-6.03718123 34.92760719 -6.03718123 34.92760719 -7 37 C-6.16597656 36.66226563 -5.33195312 36.32453125 -4.47265625 35.9765625 C15.57623705 28.03049482 15.57623705 28.03049482 25.8125 32.125 C29.35305359 35.15976022 30.7130775 38.58357454 31.25 43.10546875 C31.51972875 52.6302654 28.73122105 61.53375356 25.3125 70.3125 C24.9623584 71.22169189 24.6122168 72.13088379 24.25146484 73.06762695 C17.31832595 90.68167405 17.31832595 90.68167405 12 96 C8.61669159 96.55131098 5.38342525 96.54896635 2 96 C-0.1875 93.8125 -0.1875 93.8125 -1 91 C-0.51127206 87.34154395 0.62353308 84.28565285 2.14453125 80.9375 C2.57258057 79.98141846 3.00062988 79.02533691 3.44165039 78.0402832 C3.89403076 77.03698975 4.34641113 76.03369629 4.8125 75 C9.04364486 65.46103168 12.50607514 56.14196112 15 46 C13.96359375 46.42152344 12.9271875 46.84304688 11.859375 47.27734375 C10.48963909 47.83086716 9.11984432 48.38424494 7.75 48.9375 C7.06808594 49.21529297 6.38617188 49.49308594 5.68359375 49.77929688 C-1.72623972 52.7648123 -7.98776867 53.7508115 -16 53 C-20.27201161 51.1263107 -21.59202725 49.6975018 -23.9375 45.6875 C-26.42653144 37.04909676 -22.10925728 30.44188459 -18 23 C-16.39425453 20.28354458 -14.72750414 17.64206516 -13 15 C-13.66 15.33 -14.32 15.66 -15 16 C-16.80843663 16.14716542 -18.62331566 16.2210887 -20.4375 16.25 C-21.88962891 16.28867187 -21.88962891 16.28867187 -23.37109375 16.328125 C-26 16 -26 16 -27.82421875 14.734375 C-29.23240817 12.65717864 -29.40333693 11.49365004 -29.375 9 C-29.38273437 8.319375 -29.39046875 7.63875 -29.3984375 6.9375 C-28.86388282 4.33809684 -28.12963781 3.58495057 -26 2 C-17.81621545 -1.34740298 -8.28506008 -4.60281115 0 0 Z " fill="#5148DF" transform="translate(451,354)"/>
<path d="M0 0 C0 0.66 0 1.32 0 2 C0.66 2 1.32 2 2 2 C2 2.66 2 3.32 2 4 C2.66 4 3.32 4 4 4 C4 4.66 4 5.32 4 6 C4.66 6 5.32 6 6 6 C6 6.66 6 7.32 6 8 C6.99 8.33 7.98 8.66 9 9 C18.03062727 21.11575106 28.19187745 42.4873528 27.9375 57.75 C27 61 27 61 24.8125 63 C21.28934626 64.25267688 19.53918424 64.20482868 16 63 C11.88364444 58.86743832 10.52972894 54.28919316 8.8125 48.875 C2.75706508 28.8655933 2.75706508 28.8655933 -9.90625 13.03125 C-17.11618241 9.48008926 -23.47095667 9.60439531 -31 12 C-31.969375 12.268125 -32.93875 12.53625 -33.9375 12.8125 C-36.70778735 14.40751393 -37.099874 15.99957999 -38 19 C-38.33 19.66 -38.66 20.32 -39 21 C-39.47286232 26.24799658 -39.88970106 31.22059787 -37.5 36 C-34.74651686 38.20278651 -32.01893599 39.6802831 -28.8046875 41.10546875 C-27 42 -27 42 -25 44 C-24.53623188 51.30434783 -24.53623188 51.30434783 -27 55 C-33.81075557 56.7923041 -37.91320482 55.28292425 -44 52 C-44 51.34 -44 50.68 -44 50 C-44.59554687 49.92136719 -45.19109375 49.84273437 -45.8046875 49.76171875 C-48.72702706 48.74773972 -49.4727634 47.39466035 -51.125 44.8125 C-51.62257812 44.05582031 -52.12015625 43.29914063 -52.6328125 42.51953125 C-56.71872853 34.9897717 -56.94295554 27.39398819 -56 19 C-52.94641179 9.33404614 -46.78521895 1.28163852 -37.75 -3.4375 C-25.72109531 -8.97974327 -10.80101981 -7.20067987 0 0 Z " fill="#5249DF" transform="translate(240,120)"/>
<path d="M0 0 C5.01899068 1.39023685 8.49930375 5.5894171 11.49609375 9.69140625 C11.49609375 10.68140625 11.49609375 11.67140625 11.49609375 12.69140625 C12.15609375 12.69140625 12.81609375 12.69140625 13.49609375 12.69140625 C13.49609375 13.35140625 13.49609375 14.01140625 13.49609375 14.69140625 C14.15609375 14.69140625 14.81609375 14.69140625 15.49609375 14.69140625 C15.49609375 15.35140625 15.49609375 16.01140625 15.49609375 16.69140625 C16.16962891 16.52012207 16.84316406 16.34883789 17.53710938 16.17236328 C44.51720627 9.36296936 71.65263683 3.46997954 97.5078125 16.77734375 C101.46117984 19.30956597 104.94326402 21.55163 106.16015625 26.26171875 C106.05509996 33.13240004 106.05509996 33.13240004 103.30859375 35.87890625 C99.45084099 36.99336816 97.03599502 36.46135689 93.49609375 34.69140625 C93.49609375 34.03140625 93.49609375 33.37140625 93.49609375 32.69140625 C92.91988281 32.56765625 92.34367187 32.44390625 91.75 32.31640625 C89.44254805 31.67655822 87.55103917 30.80112716 85.43359375 29.69140625 C68.30853488 20.75087647 42.55712972 26.39165236 24.99951172 31.86279297 C11.92787652 36.15920162 11.92787652 36.15920162 -0.60546875 41.77880859 C-4.5797662 43.68929263 -9.22785308 43.34312197 -13.50390625 42.69140625 C-15.75390625 40.50390625 -15.75390625 40.50390625 -16.50390625 37.69140625 C-16.50390625 34.22432619 -15.64167389 32.86792104 -13.50390625 30.12890625 C-9.78468398 27.10703815 -5.94138165 25.42192498 -1.50390625 23.69140625 C-2.24829542 20.55290055 -3.26227984 17.67130964 -4.50390625 14.69140625 C-5.16390625 14.69140625 -5.82390625 14.69140625 -6.50390625 14.69140625 C-6.50390625 14.03140625 -6.50390625 13.37140625 -6.50390625 12.69140625 C-7.16390625 12.69140625 -7.82390625 12.69140625 -8.50390625 12.69140625 C-10.02144628 10.28119561 -10.52707531 9.00805003 -10.31640625 6.12890625 C-8.53134623 0.77372618 -5.28832939 -0.13025442 0 0 Z " fill="#5249E0" transform="translate(346.50390625,271.30859375)"/>
<path d="M0 0 C6.11547713 0.40452572 9.82779396 2.34552535 14.8125 5.8125 C15.47958984 6.25142578 16.14667969 6.69035156 16.83398438 7.14257812 C22.73451701 11.14970069 22.73451701 11.14970069 24 15 C11.38235294 26 11.38235294 26 6 26 C5.67 26.99 5.34 27.98 5 29 C3.35 28.67 1.7 28.34 0 28 C0 27.34 0 26.68 0 26 C-0.66 26 -1.32 26 -2 26 C-2 25.34 -2 24.68 -2 24 C-2.66 24 -3.32 24 -4 24 C-4 23.34 -4 22.68 -4 22 C-4.66 22 -5.32 22 -6 22 C-6 21.34 -6 20.68 -6 20 C-6.66 20 -7.32 20 -8 20 C-8 19.34 -8 18.68 -8 18 C-8.66 18 -9.32 18 -10 18 C-10 17.34 -10 16.68 -10 16 C-10.66 16 -11.32 16 -12 16 C-12 14.68 -12 13.36 -12 12 C-11.34 12 -10.68 12 -10 12 C-10 11.34 -10 10.68 -10 10 C-9.34 10 -8.68 10 -8 10 C-8 9.34 -8 8.68 -8 8 C-7.34 8 -6.68 8 -6 8 C-6 7.34 -6 6.68 -6 6 C-5.34 6 -4.68 6 -4 6 C-4 5.34 -4 4.68 -4 4 C-3.34 4 -2.68 4 -2 4 C-2 3.34 -2 2.68 -2 2 C-1.34 2 -0.68 2 0 2 C0 1.34 0 0.68 0 0 Z " fill="#5047DE" transform="translate(166,200)"/>
<path d="M0 0 C2.77806929 1.20366954 4.34370565 2.64187288 6.25390625 4.9765625 C6.25390625 5.6365625 6.25390625 6.2965625 6.25390625 6.9765625 C6.83140625 7.1828125 7.40890625 7.3890625 8.00390625 7.6015625 C11.06801169 9.47407138 12.40930593 11.94614769 14.25390625 14.9765625 C13.26390625 16.4615625 13.26390625 16.4615625 12.25390625 17.9765625 C11.59390625 17.9765625 10.93390625 17.9765625 10.25390625 17.9765625 C10.25390625 18.6365625 10.25390625 19.2965625 10.25390625 19.9765625 C9.59390625 19.9765625 8.93390625 19.9765625 8.25390625 19.9765625 C8.25390625 20.6365625 8.25390625 21.2965625 8.25390625 21.9765625 C7.59390625 21.9765625 6.93390625 21.9765625 6.25390625 21.9765625 C6.25390625 22.6365625 6.25390625 23.2965625 6.25390625 23.9765625 C5.59390625 23.9765625 4.93390625 23.9765625 4.25390625 23.9765625 C4.25390625 24.6365625 4.25390625 25.2965625 4.25390625 25.9765625 C3.59390625 25.9765625 2.93390625 25.9765625 2.25390625 25.9765625 C1.92390625 26.9665625 1.59390625 27.9565625 1.25390625 28.9765625 C-0.39609375 28.6465625 -2.04609375 28.3165625 -3.74609375 27.9765625 C-3.74609375 27.3165625 -3.74609375 26.6565625 -3.74609375 25.9765625 C-4.40609375 25.9765625 -5.06609375 25.9765625 -5.74609375 25.9765625 C-5.74609375 25.3165625 -5.74609375 24.6565625 -5.74609375 23.9765625 C-6.40609375 23.9765625 -7.06609375 23.9765625 -7.74609375 23.9765625 C-7.74609375 23.3165625 -7.74609375 22.6565625 -7.74609375 21.9765625 C-8.40609375 21.9765625 -9.06609375 21.9765625 -9.74609375 21.9765625 C-9.74609375 21.3165625 -9.74609375 20.6565625 -9.74609375 19.9765625 C-10.40609375 19.9765625 -11.06609375 19.9765625 -11.74609375 19.9765625 C-11.74609375 19.3165625 -11.74609375 18.6565625 -11.74609375 17.9765625 C-12.40609375 17.9765625 -13.06609375 17.9765625 -13.74609375 17.9765625 C-13.74609375 17.3165625 -13.74609375 16.6565625 -13.74609375 15.9765625 C-14.40609375 15.9765625 -15.06609375 15.9765625 -15.74609375 15.9765625 C-14.88368249 11.39824601 -12.19042372 8.86980079 -8.99609375 5.6640625 C-8.2071875 4.82004883 -8.2071875 4.82004883 -7.40234375 3.95898438 C-3.45778462 -0.02951168 -3.45778462 -0.02951168 0 0 Z " fill="#5047DE" transform="translate(421.74609375,192.0234375)"/>
<path d="M0 0 C3 1.875 3 1.875 5 5 C5.69550083 8.79675041 5.71894388 12.20557394 5 16 C2.75 19.0625 2.75 19.0625 0 21 C-0.639375 21.45375 -1.27875 21.9075 -1.9375 22.375 C-4.9867786 23.29902382 -6.94218102 22.85618931 -10 22 C-15.75193798 18.74418605 -15.75193798 18.74418605 -17 15 C-17.11659598 13.50323294 -17.17498959 12.00124939 -17.1875 10.5 C-17.20167969 9.7265625 -17.21585937 8.953125 -17.23046875 8.15625 C-17 6 -17 6 -15 3 C-14.34 3 -13.68 3 -13 3 C-13 2.34 -13 1.68 -13 1 C-8.5258425 -1.37689617 -4.76728926 -1.43210907 0 0 Z " fill="#5148DE" transform="translate(279,377)"/>
<path d="M0 0 C3.13348742 2.00543195 4.42612175 3.35740236 5.65234375 6.8671875 C6.43130317 10.68037931 6.14925651 13.39890561 4.375 16.875 C1.02363823 21.28468654 1.02363823 21.28468654 -3 22 C-6.86992929 22.16917724 -10.43122123 22.13588463 -13.65625 19.80078125 C-16.64050159 16.49554911 -18.09023993 13.42175671 -18 9 C-14.4788252 0.11322551 -8.87636772 -1.23282885 0 0 Z " fill="#5148E0" transform="translate(308,108)"/>
<path d="M0 0 C3.26569485 2.25576213 4.6903655 5.20871182 6.125 8.875 C5.94345579 13.41360527 3.8203916 16.51402926 1 20 C-1.56564725 21.28282363 -3.51033069 21.20391953 -6.375 21.25 C-7.33148438 21.27578125 -8.28796875 21.3015625 -9.2734375 21.328125 C-12.43281628 20.94791323 -13.72112323 20.18113714 -16 18 C-18.20757711 13.37460033 -18.25813122 9.94265835 -17 5 C-12.61624886 -1.72175175 -7.38214589 -1.9073487 0 0 Z " fill="#5148DE" transform="translate(186,399)"/>
<path d="M0 0 C2.41869578 1.1589584 4.12322096 2.12322096 6 4 C6.15215174 6.28812814 6.22186492 8.58199128 6.25 10.875 C6.27578125 12.13054687 6.3015625 13.38609375 6.328125 14.6796875 C6 18 6 18 4.65625 19.8671875 C1.01673949 22.35647535 -2.18607168 23.01427944 -6.5625 22.9375 C-10.8272579 21.77438421 -12.41178847 20.57782182 -15 17 C-16.39438323 12.81685032 -16.30025914 9.83756498 -14.8125 5.6875 C-10.81145276 -0.24508728 -6.91556037 -0.94919456 0 0 Z " fill="#5047E0" transform="translate(448,119)"/>
<path d="M0 0 C0 0.66 0 1.32 0 2 C0.66 2 1.32 2 2 2 C2 2.66 2 3.32 2 4 C2.66 4 3.32 4 4 4 C4 4.66 4 5.32 4 6 C4.66 6 5.32 6 6 6 C6 6.66 6 7.32 6 8 C6.66 8 7.32 8 8 8 C8 9.32 8 10.64 8 12 C7.34 12 6.68 12 6 12 C6 12.66 6 13.32 6 14 C5.34 14 4.68 14 4 14 C4 14.66 4 15.32 4 16 C3.34 16 2.68 16 2 16 C2 16.66 2 17.32 2 18 C1.34 18 0.68 18 0 18 C0 18.66 0 19.32 0 20 C-4.49652778 20.36458333 -4.49652778 20.36458333 -6.8125 18.6875 C-8 17 -8 17 -8 14 C-8.639375 13.7525 -9.27875 13.505 -9.9375 13.25 C-12 12 -12 12 -12.85546875 10.1875 C-13 8 -13 8 -11.5234375 5.859375 C-10.81445312 5.16328125 -10.10546875 4.4671875 -9.375 3.75 C-8.68148438 3.04359375 -7.98796875 2.3371875 -7.2734375 1.609375 C-4.60330095 -0.28082476 -3.20045366 -0.33688986 0 0 Z " fill="#5047DC" transform="translate(488,254)"/>
<path d="M0 0 C1.21683376 4.00037428 0.52917239 5.72327465 -1.3125 9.5 C-1.76238281 10.4384375 -2.21226563 11.376875 -2.67578125 12.34375 C-4 15 -4 15 -5.140625 16.8671875 C-6.42716788 20.06015302 -6.42441851 23.23094851 -6.4375 26.625 C-6.44209229 27.33414551 -6.44668457 28.04329102 -6.45141602 28.77392578 C-6.33380004 34.36736009 -4.9890683 38.39417264 -1.99609375 43.1796875 C-1.66738281 43.78039062 -1.33867188 44.38109375 -1 45 C-1.33 45.66 -1.66 46.32 -2 47 C-8.36617251 37.87515274 -9.77075599 28.93368215 -8 18 C-6.06814793 11.68049129 -3.08416448 5.82411418 0 0 Z " fill="#5750C9" transform="translate(116,436)"/>
<path d="M0 0 C0.66 1.32 1.32 2.64 2 4 C1.01 3.34 0.02 2.68 -1 2 C-4.4103976 1.78685015 -6.74531799 1.915106 -10 3 C-10.73360568 5.00735831 -10.73360568 5.00735831 -11.0625 7.375 C-11.63170911 10.70351803 -12.05951616 12.08927425 -14 15 C-14.66 15 -15.32 15 -16 15 C-16 15.66 -16 16.32 -16 17 C-19 19 -19 19 -21.1875 18.625 C-22.0846875 18.315625 -22.0846875 18.315625 -23 18 C-20 16 -20 16 -17 16 C-17 15.34 -17 14.68 -17 14 C-16.34 14 -15.68 14 -15 14 C-14.9175 13.34 -14.835 12.68 -14.75 12 C-13.76146107 8.0458443 -12.14741483 4.46827753 -10 1 C-6.78548731 -0.60725635 -3.56387464 -0.05748185 0 0 Z " fill="#5850CB" transform="translate(381,118)"/>
<path d="M0 0 C0.75925781 -0.01224609 1.51851562 -0.02449219 2.30078125 -0.03710938 C6.29878384 -0.04761201 9.02959772 0.23515691 12.5 2.1875 C11.93079834 2.17178955 11.36159668 2.1560791 10.77514648 2.13989258 C8.16270126 2.07701561 5.5504159 2.03834468 2.9375 2 C2.04224609 1.97486328 1.14699219 1.94972656 0.22460938 1.92382812 C-5.55313902 1.86033638 -9.32369362 2.65326667 -14.5 5.1875 C-16.9375 4.875 -16.9375 4.875 -18.5 4.1875 C-12.02861744 0.80473185 -7.27073732 0.0061721 0 0 Z " fill="#5750C9" transform="translate(218.5,113.8125)"/>
<path d="M0 0 C0.99 0 1.98 0 3 0 C3 5.28 3 10.56 3 16 C2.01 16.33 1.02 16.66 0 17 C0 11.39 0 5.78 0 0 Z " fill="#8781D9" transform="translate(348,213)"/>
<path d="M0 0 C-7.05226014 3.62317952 -14.26512137 6.28113808 -22 8 C-22 7.34 -22 6.68 -22 6 C-19.91780951 5.18457569 -17.83420239 4.37276811 -15.75 3.5625 C-14.58984375 3.11003906 -13.4296875 2.65757812 -12.234375 2.19140625 C-7.91195327 0.59920984 -4.60687267 -0.12796869 0 0 Z " fill="#5851C8" transform="translate(466,385)"/>
<path d="M0 0 C0.66 0.33 1.32 0.66 2 1 C1.2884375 1.804375 1.2884375 1.804375 0.5625 2.625 C-1.36868727 5.56040465 -1.79366256 7.49226347 -2 11 C-1.14703322 14.78059045 -1.14703322 14.78059045 0 18 C-2.5493186 15.86186182 -3.87613325 14.34837524 -5 11.1875 C-5 6.73032344 -3.22053916 3.22053916 0 0 Z " fill="#554EC8" transform="translate(295,109)"/>
<path d="M0 0 C0 0.33 0 0.66 0 1 C-1.39025391 1.19916016 -1.39025391 1.19916016 -2.80859375 1.40234375 C-4.00613281 1.57894531 -5.20367187 1.75554687 -6.4375 1.9375 C-7.63246094 2.11152344 -8.82742188 2.28554688 -10.05859375 2.46484375 C-12.87955676 2.68985213 -12.87955676 2.68985213 -14 4 C-15.51928038 4.07179964 -17.04167482 4.08392007 -18.5625 4.0625 C-19.38878906 4.05347656 -20.21507812 4.04445313 -21.06640625 4.03515625 C-21.70449219 4.02355469 -22.34257812 4.01195312 -23 4 C-16.05317202 0.13704426 -7.79971079 -0.29432871 0 0 Z " fill="#5952C7" transform="translate(402,281)"/>
<path d="M0 0 C0.99 0.33 1.98 0.66 3 1 C0.03 4.3 -2.94 7.6 -6 11 C-6.33 10.34 -6.66 9.68 -7 9 C-5.38107279 4.99528531 -3.891902 2.06757294 0 0 Z " fill="#544BCD" transform="translate(439,119)"/>
<path d="M0 0 C1.06083461 2.72970856 1.03496104 3.89297016 0.109375 6.7265625 C-0.33921875 7.68304688 -0.7878125 8.63953125 -1.25 9.625 C-1.90742188 11.06746094 -1.90742188 11.06746094 -2.578125 12.5390625 C-4 15 -4 15 -7 17 C-5.24009216 11.08030998 -2.60305395 5.58365008 0 0 Z " fill="#5A53C8" transform="translate(214,226)"/>
<path d="M0 0 C1.14897419 4.59589675 0.7140729 5.26171852 -1.4375 9.25 C-1.91058594 10.14203125 -2.38367188 11.0340625 -2.87109375 11.953125 C-3.24363281 12.62859375 -3.61617187 13.3040625 -4 14 C-4.66 13.67 -5.32 13.34 -6 13 C-4.02 8.71 -2.04 4.42 0 0 Z " fill="#5A53C8" transform="translate(180,299)"/>
<path d="M0 0 C0.93045933 2.55144824 1.08564091 3.74006478 0.22265625 6.359375 C-0.16019531 7.14828125 -0.54304687 7.9371875 -0.9375 8.75 C-1.50791016 9.94882812 -1.50791016 9.94882812 -2.08984375 11.171875 C-2.39019531 11.77515625 -2.69054687 12.3784375 -3 13 C-3.66 13 -4.32 13 -5 13 C-4.54554036 11.58208592 -4.08625056 10.16571954 -3.625 8.75 C-3.24214844 7.56664062 -3.24214844 7.56664062 -2.8515625 6.359375 C-2.04826333 4.13372042 -1.10288338 2.09068328 0 0 Z " fill="#5851C8" transform="translate(140,385)"/>
<path d="M0 0 C0.721875 0.78375 1.44375 1.5675 2.1875 2.375 C4.83299041 4.84412438 6.60373611 5.93260278 10 7 C10 7.66 10 8.32 10 9 C5.61633881 7.80445604 2.84621677 6.6125059 0 3 C0 2.01 0 1.02 0 0 Z " fill="#5851C8" transform="translate(433,133)"/>
<path d="M0 0 C2.97 0.495 2.97 0.495 6 1 C6.5625 2.9375 6.5625 2.9375 7 5 C6 6 6 6 3.4375 6.0625 C2.2309375 6.0315625 2.2309375 6.0315625 1 6 C1.99 5.01 2.98 4.02 4 3 C2.68 2.01 1.36 1.02 0 0 Z " fill="#5F57CE" transform="translate(356,377)"/>
<path d="M0 0 C0 0.66 0 1.32 0 2 C-3.82320557 3.42258812 -6.91281305 4.24042276 -11 4 C-11.33 3.34 -11.66 2.68 -12 2 C-10.56342755 1.66269158 -9.12569907 1.33030409 -7.6875 1 C-6.88699219 0.814375 -6.08648437 0.62875 -5.26171875 0.4375 C-3 0 -3 0 0 0 Z " fill="#5F58CB" transform="translate(378,285)"/>
<path d="M0 0 C4.31392226 0.4793247 6.16569547 1.7457985 9 5 C8.67 5.66 8.34 6.32 8 7 C7.278125 6.34 6.55625 5.68 5.8125 5 C2.78402067 2.8464147 1.60296594 2.58823246 -2 3 C-1.34 2.01 -0.68 1.02 0 0 Z " fill="#544DC5" transform="translate(419,192)"/>
<path d="M0 0 C3.63 0 7.26 0 11 0 C10.67 0.66 10.34 1.32 10 2 C7.1875 2.8125 7.1875 2.8125 4 3 C2.68 2.01 1.36 1.02 0 0 Z " fill="#5851C7" transform="translate(440,305)"/>
<path d="M0 0 C1.13643966 3.40931897 0.86747764 4.00335456 -0.4375 7.1875 C-0.72496094 7.90292969 -1.01242188 8.61835938 -1.30859375 9.35546875 C-1.53675781 9.89816406 -1.76492187 10.44085938 -2 11 C-2.66 11 -3.32 11 -4 11 C-3.52269162 9.5410574 -3.04308958 8.08286504 -2.5625 6.625 C-2.29566406 5.81289063 -2.02882812 5.00078125 -1.75390625 4.1640625 C-1 2 -1 2 0 0 Z " fill="#5A53C9" transform="translate(131,404)"/>
<path d="M0 0 C1.13643966 3.40931897 0.86747764 4.00335456 -0.4375 7.1875 C-0.72496094 7.90292969 -1.01242188 8.61835938 -1.30859375 9.35546875 C-1.53675781 9.89816406 -1.76492187 10.44085938 -2 11 C-2.66 11 -3.32 11 -4 11 C-3.52269162 9.5410574 -3.04308958 8.08286504 -2.5625 6.625 C-2.29566406 5.81289063 -2.02882812 5.00078125 -1.75390625 4.1640625 C-1 2 -1 2 0 0 Z " fill="#5A53C7" transform="translate(165,331)"/>
</svg>
